<svg width="536" height="43" viewBox="0 0 536 43" fill="none" xmlns="http://www.w3.org/2000/svg">
<rect width="32.9846" height="42.2615" fill="#21205C"/>
<rect x="65.9692" width="32.9846" height="42.2615" fill="#AACF37"/>
<rect x="32.9846" width="32.9846" height="42.2615" fill="#FBED2D"/>
<rect x="98.9539" width="32.9846" height="42.2615" fill="#53BEE0"/>
<path d="M157.059 23.7781L159.355 11.6375H162.859L159.074 28.7H155.535L152.758 17.2859L149.98 28.7H146.441L142.656 11.6375H146.16L148.469 23.7546L151.281 11.6375H154.258L157.059 23.7781ZM163.645 22.2429C163.645 20.9851 163.887 19.864 164.371 18.8796C164.855 17.8953 165.551 17.1335 166.457 16.5945C167.371 16.0554 168.43 15.7859 169.633 15.7859C171.344 15.7859 172.738 16.3093 173.816 17.3562C174.902 18.4031 175.508 19.825 175.633 21.6218L175.656 22.489C175.656 24.4343 175.113 25.9968 174.027 27.1765C172.941 28.3484 171.484 28.9343 169.656 28.9343C167.828 28.9343 166.367 28.3484 165.273 27.1765C164.188 26.0046 163.645 24.4109 163.645 22.3953V22.2429ZM167.031 22.489C167.031 23.6921 167.258 24.614 167.711 25.2546C168.164 25.8875 168.812 26.2039 169.656 26.2039C170.477 26.2039 171.117 25.8914 171.578 25.2664C172.039 24.6335 172.27 23.6257 172.27 22.2429C172.27 21.0632 172.039 20.1492 171.578 19.5007C171.117 18.8523 170.469 18.5281 169.633 18.5281C168.805 18.5281 168.164 18.8523 167.711 19.5007C167.258 20.1414 167.031 21.1375 167.031 22.489ZM184.867 19.196C184.406 19.1335 184 19.1023 183.648 19.1023C182.367 19.1023 181.527 19.5359 181.129 20.4031V28.7H177.742V16.0203H180.941L181.035 17.532C181.715 16.3679 182.656 15.7859 183.859 15.7859C184.234 15.7859 184.586 15.8367 184.914 15.9382L184.867 19.196ZM190.082 28.7H186.684V10.7H190.082V28.7ZM192.355 22.2664C192.355 20.2898 192.797 18.7156 193.68 17.5437C194.57 16.3718 195.785 15.7859 197.324 15.7859C198.559 15.7859 199.578 16.2468 200.383 17.1687V10.7H203.781V28.7H200.723L200.559 27.3523C199.715 28.407 198.629 28.9343 197.301 28.9343C195.809 28.9343 194.609 28.3484 193.703 27.1765C192.805 25.9968 192.355 24.3601 192.355 22.2664ZM195.742 22.5125C195.742 23.7 195.949 24.6101 196.363 25.2429C196.777 25.8757 197.379 26.1921 198.168 26.1921C199.215 26.1921 199.953 25.7507 200.383 24.8679V19.864C199.961 18.9812 199.23 18.5398 198.191 18.5398C196.559 18.5398 195.742 19.864 195.742 22.5125ZM217.434 24.0945L219.098 16.0203H222.367L219.133 28.7H216.297L213.895 20.7195L211.492 28.7H208.668L205.434 16.0203H208.703L210.355 24.0828L212.676 16.0203H215.125L217.434 24.0945ZM227.629 28.7H224.23V16.0203H227.629V28.7ZM224.031 12.739C224.031 12.2312 224.199 11.8132 224.535 11.4851C224.879 11.157 225.344 10.9929 225.93 10.9929C226.508 10.9929 226.969 11.157 227.312 11.4851C227.656 11.8132 227.828 12.2312 227.828 12.739C227.828 13.2546 227.652 13.6765 227.301 14.0046C226.957 14.3328 226.5 14.4968 225.93 14.4968C225.359 14.4968 224.898 14.3328 224.547 14.0046C224.203 13.6765 224.031 13.2546 224.031 12.739ZM229.902 22.2664C229.902 20.2898 230.344 18.7156 231.227 17.5437C232.117 16.3718 233.332 15.7859 234.871 15.7859C236.105 15.7859 237.125 16.2468 237.93 17.1687V10.7H241.328V28.7H238.27L238.105 27.3523C237.262 28.407 236.176 28.9343 234.848 28.9343C233.355 28.9343 232.156 28.3484 231.25 27.1765C230.352 25.9968 229.902 24.3601 229.902 22.2664ZM233.289 22.5125C233.289 23.7 233.496 24.6101 233.91 25.2429C234.324 25.8757 234.926 26.1921 235.715 26.1921C236.762 26.1921 237.5 25.7507 237.93 24.8679V19.864C237.508 18.9812 236.777 18.5398 235.738 18.5398C234.105 18.5398 233.289 19.864 233.289 22.5125ZM249.789 28.9343C247.93 28.9343 246.414 28.364 245.242 27.2234C244.078 26.0828 243.496 24.5632 243.496 22.6648V22.3367C243.496 21.0632 243.742 19.9265 244.234 18.9265C244.727 17.9187 245.422 17.1453 246.32 16.6062C247.227 16.0593 248.258 15.7859 249.414 15.7859C251.148 15.7859 252.512 16.3328 253.504 17.4265C254.504 18.5203 255.004 20.071 255.004 22.0789V23.4617H246.93C247.039 24.2898 247.367 24.9539 247.914 25.4539C248.469 25.9539 249.168 26.2039 250.012 26.2039C251.316 26.2039 252.336 25.7312 253.07 24.7859L254.734 26.6492C254.227 27.3679 253.539 27.9304 252.672 28.3367C251.805 28.7351 250.844 28.9343 249.789 28.9343ZM249.402 18.5281C248.73 18.5281 248.184 18.7546 247.762 19.2078C247.348 19.6609 247.082 20.3093 246.965 21.1531H251.676V20.8835C251.66 20.1335 251.457 19.5554 251.066 19.1492C250.676 18.7351 250.121 18.5281 249.402 18.5281ZM267.73 11.6375L272.113 24.0125L276.473 11.6375H281.09V28.7H277.562V24.0359L277.914 15.9851L273.309 28.7H270.895L266.301 15.9968L266.652 24.0359V28.7H263.137V11.6375H267.73ZM291.285 28.7C291.129 28.3953 291.016 28.0164 290.945 27.5632C290.125 28.4773 289.059 28.9343 287.746 28.9343C286.504 28.9343 285.473 28.575 284.652 27.8562C283.84 27.1375 283.434 26.2312 283.434 25.1375C283.434 23.7937 283.93 22.7625 284.922 22.0437C285.922 21.325 287.363 20.9617 289.246 20.9539H290.805V20.2273C290.805 19.6414 290.652 19.1726 290.348 18.821C290.051 18.4695 289.578 18.2937 288.93 18.2937C288.359 18.2937 287.91 18.4304 287.582 18.7039C287.262 18.9773 287.102 19.3523 287.102 19.8289H283.715C283.715 19.0945 283.941 18.4148 284.395 17.7898C284.848 17.1648 285.488 16.6765 286.316 16.325C287.145 15.9656 288.074 15.7859 289.105 15.7859C290.668 15.7859 291.906 16.1804 292.82 16.9695C293.742 17.7507 294.203 18.8523 294.203 20.2742V25.7703C294.211 26.9734 294.379 27.8835 294.707 28.5007V28.7H291.285ZM288.484 26.3445C288.984 26.3445 289.445 26.2351 289.867 26.0164C290.289 25.7898 290.602 25.489 290.805 25.114V22.9343H289.539C287.844 22.9343 286.941 23.5203 286.832 24.6921L286.82 24.8914C286.82 25.3132 286.969 25.6609 287.266 25.9343C287.562 26.2078 287.969 26.3445 288.484 26.3445ZM299.922 16.0203L300.027 17.4851C300.934 16.3523 302.148 15.7859 303.672 15.7859C305.016 15.7859 306.016 16.1804 306.672 16.9695C307.328 17.7585 307.664 18.9382 307.68 20.5085V28.7H304.293V20.5906C304.293 19.8718 304.137 19.3523 303.824 19.032C303.512 18.7039 302.992 18.5398 302.266 18.5398C301.312 18.5398 300.598 18.946 300.121 19.7585V28.7H296.734V16.0203H299.922ZM317.605 28.7C317.449 28.3953 317.336 28.0164 317.266 27.5632C316.445 28.4773 315.379 28.9343 314.066 28.9343C312.824 28.9343 311.793 28.575 310.973 27.8562C310.16 27.1375 309.754 26.2312 309.754 25.1375C309.754 23.7937 310.25 22.7625 311.242 22.0437C312.242 21.325 313.684 20.9617 315.566 20.9539H317.125V20.2273C317.125 19.6414 316.973 19.1726 316.668 18.821C316.371 18.4695 315.898 18.2937 315.25 18.2937C314.68 18.2937 314.23 18.4304 313.902 18.7039C313.582 18.9773 313.422 19.3523 313.422 19.8289H310.035C310.035 19.0945 310.262 18.4148 310.715 17.7898C311.168 17.1648 311.809 16.6765 312.637 16.325C313.465 15.9656 314.395 15.7859 315.426 15.7859C316.988 15.7859 318.227 16.1804 319.141 16.9695C320.062 17.7507 320.523 18.8523 320.523 20.2742V25.7703C320.531 26.9734 320.699 27.8835 321.027 28.5007V28.7H317.605ZM314.805 26.3445C315.305 26.3445 315.766 26.2351 316.188 26.0164C316.609 25.7898 316.922 25.489 317.125 25.114V22.9343H315.859C314.164 22.9343 313.262 23.5203 313.152 24.6921L313.141 24.8914C313.141 25.3132 313.289 25.6609 313.586 25.9343C313.883 26.2078 314.289 26.3445 314.805 26.3445ZM322.633 22.2664C322.633 20.321 323.094 18.7546 324.016 17.5671C324.945 16.3796 326.195 15.7859 327.766 15.7859C329.156 15.7859 330.238 16.2625 331.012 17.2156L331.152 16.0203H334.223V28.2781C334.223 29.3875 333.969 30.3523 333.461 31.1726C332.961 31.9929 332.254 32.6179 331.34 33.0476C330.426 33.4773 329.355 33.6921 328.129 33.6921C327.199 33.6921 326.293 33.5046 325.41 33.1296C324.527 32.7625 323.859 32.2859 323.406 31.7L324.906 29.6375C325.75 30.5828 326.773 31.0554 327.977 31.0554C328.875 31.0554 329.574 30.8132 330.074 30.3289C330.574 29.8523 330.824 29.1726 330.824 28.2898V27.6101C330.043 28.4929 329.016 28.9343 327.742 28.9343C326.219 28.9343 324.984 28.3406 324.039 27.1531C323.102 25.9578 322.633 24.3757 322.633 22.407V22.2664ZM326.02 22.5125C326.02 23.6609 326.25 24.5632 326.711 25.2195C327.172 25.8679 327.805 26.1921 328.609 26.1921C329.641 26.1921 330.379 25.8054 330.824 25.032V19.7C330.371 18.9265 329.641 18.5398 328.633 18.5398C327.82 18.5398 327.18 18.8718 326.711 19.5359C326.25 20.2 326.02 21.1921 326.02 22.5125ZM342.672 28.9343C340.812 28.9343 339.297 28.364 338.125 27.2234C336.961 26.0828 336.379 24.5632 336.379 22.6648V22.3367C336.379 21.0632 336.625 19.9265 337.117 18.9265C337.609 17.9187 338.305 17.1453 339.203 16.6062C340.109 16.0593 341.141 15.7859 342.297 15.7859C344.031 15.7859 345.395 16.3328 346.387 17.4265C347.387 18.5203 347.887 20.071 347.887 22.0789V23.4617H339.812C339.922 24.2898 340.25 24.9539 340.797 25.4539C341.352 25.9539 342.051 26.2039 342.895 26.2039C344.199 26.2039 345.219 25.7312 345.953 24.7859L347.617 26.6492C347.109 27.3679 346.422 27.9304 345.555 28.3367C344.688 28.7351 343.727 28.9343 342.672 28.9343ZM342.285 18.5281C341.613 18.5281 341.066 18.7546 340.645 19.2078C340.23 19.6609 339.965 20.3093 339.848 21.1531H344.559V20.8835C344.543 20.1335 344.34 19.5554 343.949 19.1492C343.559 18.7351 343.004 18.5281 342.285 18.5281ZM369.309 23.7781L371.605 11.6375H375.109L371.324 28.7H367.785L365.008 17.2859L362.23 28.7H358.691L354.906 11.6375H358.41L360.719 23.7546L363.531 11.6375H366.508L369.309 23.7781ZM382.258 28.9343C380.398 28.9343 378.883 28.364 377.711 27.2234C376.547 26.0828 375.965 24.5632 375.965 22.6648V22.3367C375.965 21.0632 376.211 19.9265 376.703 18.9265C377.195 17.9187 377.891 17.1453 378.789 16.6062C379.695 16.0593 380.727 15.7859 381.883 15.7859C383.617 15.7859 384.98 16.3328 385.973 17.4265C386.973 18.5203 387.473 20.071 387.473 22.0789V23.4617H379.398C379.508 24.2898 379.836 24.9539 380.383 25.4539C380.938 25.9539 381.637 26.2039 382.48 26.2039C383.785 26.2039 384.805 25.7312 385.539 24.7859L387.203 26.6492C386.695 27.3679 386.008 27.9304 385.141 28.3367C384.273 28.7351 383.312 28.9343 382.258 28.9343ZM381.871 18.5281C381.199 18.5281 380.652 18.7546 380.23 19.2078C379.816 19.6609 379.551 20.3093 379.434 21.1531H384.145V20.8835C384.129 20.1335 383.926 19.5554 383.535 19.1492C383.145 18.7351 382.59 18.5281 381.871 18.5281ZM392.98 28.7H389.582V10.7H392.98V28.7ZM396.707 28.7V18.5046H394.82V16.0203H396.707V14.9421C396.707 13.5203 397.113 12.4187 397.926 11.6375C398.746 10.8484 399.891 10.4539 401.359 10.4539C401.828 10.4539 402.402 10.532 403.082 10.6882L403.047 13.3132C402.766 13.2429 402.422 13.2078 402.016 13.2078C400.742 13.2078 400.105 13.8054 400.105 15.0007V16.0203H402.625V18.5046H400.105V28.7H396.707ZM411.73 28.7C411.574 28.3953 411.461 28.0164 411.391 27.5632C410.57 28.4773 409.504 28.9343 408.191 28.9343C406.949 28.9343 405.918 28.575 405.098 27.8562C404.285 27.1375 403.879 26.2312 403.879 25.1375C403.879 23.7937 404.375 22.7625 405.367 22.0437C406.367 21.325 407.809 20.9617 409.691 20.9539H411.25V20.2273C411.25 19.6414 411.098 19.1726 410.793 18.821C410.496 18.4695 410.023 18.2937 409.375 18.2937C408.805 18.2937 408.355 18.4304 408.027 18.7039C407.707 18.9773 407.547 19.3523 407.547 19.8289H404.16C404.16 19.0945 404.387 18.4148 404.84 17.7898C405.293 17.1648 405.934 16.6765 406.762 16.325C407.59 15.9656 408.52 15.7859 409.551 15.7859C411.113 15.7859 412.352 16.1804 413.266 16.9695C414.188 17.7507 414.648 18.8523 414.648 20.2742V25.7703C414.656 26.9734 414.824 27.8835 415.152 28.5007V28.7H411.73ZM408.93 26.3445C409.43 26.3445 409.891 26.2351 410.312 26.0164C410.734 25.7898 411.047 25.489 411.25 25.114V22.9343H409.984C408.289 22.9343 407.387 23.5203 407.277 24.6921L407.266 24.8914C407.266 25.3132 407.414 25.6609 407.711 25.9343C408.008 26.2078 408.414 26.3445 408.93 26.3445ZM424.375 19.196C423.914 19.1335 423.508 19.1023 423.156 19.1023C421.875 19.1023 421.035 19.5359 420.637 20.4031V28.7H417.25V16.0203H420.449L420.543 17.532C421.223 16.3679 422.164 15.7859 423.367 15.7859C423.742 15.7859 424.094 15.8367 424.422 15.9382L424.375 19.196ZM431.617 28.9343C429.758 28.9343 428.242 28.364 427.07 27.2234C425.906 26.0828 425.324 24.5632 425.324 22.6648V22.3367C425.324 21.0632 425.57 19.9265 426.062 18.9265C426.555 17.9187 427.25 17.1453 428.148 16.6062C429.055 16.0593 430.086 15.7859 431.242 15.7859C432.977 15.7859 434.34 16.3328 435.332 17.4265C436.332 18.5203 436.832 20.071 436.832 22.0789V23.4617H428.758C428.867 24.2898 429.195 24.9539 429.742 25.4539C430.297 25.9539 430.996 26.2039 431.84 26.2039C433.145 26.2039 434.164 25.7312 434.898 24.7859L436.562 26.6492C436.055 27.3679 435.367 27.9304 434.5 28.3367C433.633 28.7351 432.672 28.9343 431.617 28.9343ZM431.23 18.5281C430.559 18.5281 430.012 18.7546 429.59 19.2078C429.176 19.6609 428.91 20.3093 428.793 21.1531H433.504V20.8835C433.488 20.1335 433.285 19.5554 432.895 19.1492C432.504 18.7351 431.949 18.5281 431.23 18.5281ZM453.812 24.2234C453.812 23.5593 453.578 23.0515 453.109 22.7C452.641 22.3406 451.797 21.9656 450.578 21.575C449.359 21.1765 448.395 20.7859 447.684 20.4031C445.746 19.3562 444.777 17.946 444.777 16.1726C444.777 15.2507 445.035 14.4304 445.551 13.7117C446.074 12.9851 446.82 12.4187 447.789 12.0125C448.766 11.6062 449.859 11.4031 451.07 11.4031C452.289 11.4031 453.375 11.6257 454.328 12.071C455.281 12.5085 456.02 13.1296 456.543 13.9343C457.074 14.739 457.34 15.6531 457.34 16.6765H453.824C453.824 15.8953 453.578 15.2898 453.086 14.8601C452.594 14.4226 451.902 14.2039 451.012 14.2039C450.152 14.2039 449.484 14.3875 449.008 14.7546C448.531 15.114 448.293 15.5906 448.293 16.1843C448.293 16.739 448.57 17.2039 449.125 17.5789C449.688 17.9539 450.512 18.3054 451.598 18.6335C453.598 19.2351 455.055 19.9812 455.969 20.8718C456.883 21.7625 457.34 22.8718 457.34 24.2C457.34 25.6765 456.781 26.8367 455.664 27.6804C454.547 28.5164 453.043 28.9343 451.152 28.9343C449.84 28.9343 448.645 28.696 447.566 28.2195C446.488 27.7351 445.664 27.075 445.094 26.239C444.531 25.4031 444.25 24.4343 444.25 23.3328H447.777C447.777 25.2156 448.902 26.157 451.152 26.157C451.988 26.157 452.641 25.989 453.109 25.6531C453.578 25.3093 453.812 24.8328 453.812 24.2234ZM458.98 22.2429C458.98 20.9851 459.223 19.864 459.707 18.8796C460.191 17.8953 460.887 17.1335 461.793 16.5945C462.707 16.0554 463.766 15.7859 464.969 15.7859C466.68 15.7859 468.074 16.3093 469.152 17.3562C470.238 18.4031 470.844 19.825 470.969 21.6218L470.992 22.489C470.992 24.4343 470.449 25.9968 469.363 27.1765C468.277 28.3484 466.82 28.9343 464.992 28.9343C463.164 28.9343 461.703 28.3484 460.609 27.1765C459.523 26.0046 458.98 24.4109 458.98 22.3953V22.2429ZM462.367 22.489C462.367 23.6921 462.594 24.614 463.047 25.2546C463.5 25.8875 464.148 26.2039 464.992 26.2039C465.812 26.2039 466.453 25.8914 466.914 25.2664C467.375 24.6335 467.605 23.6257 467.605 22.2429C467.605 21.0632 467.375 20.1492 466.914 19.5007C466.453 18.8523 465.805 18.5281 464.969 18.5281C464.141 18.5281 463.5 18.8523 463.047 19.5007C462.594 20.1414 462.367 21.1375 462.367 22.489ZM478.352 26.2039C478.977 26.2039 479.484 26.032 479.875 25.6882C480.266 25.3445 480.469 24.8875 480.484 24.3171H483.66C483.652 25.1765 483.418 25.9656 482.957 26.6843C482.496 27.3953 481.863 27.95 481.059 28.3484C480.262 28.739 479.379 28.9343 478.41 28.9343C476.598 28.9343 475.168 28.3601 474.121 27.2117C473.074 26.0554 472.551 24.4617 472.551 22.4304V22.2078C472.551 20.2546 473.07 18.696 474.109 17.532C475.148 16.3679 476.574 15.7859 478.387 15.7859C479.973 15.7859 481.242 16.239 482.195 17.1453C483.156 18.0437 483.645 19.2429 483.66 20.7429H480.484C480.469 20.0867 480.266 19.5554 479.875 19.1492C479.484 18.7351 478.969 18.5281 478.328 18.5281C477.539 18.5281 476.941 18.8171 476.535 19.3953C476.137 19.9656 475.938 20.8953 475.938 22.1843V22.5359C475.938 23.8406 476.137 24.7781 476.535 25.3484C476.934 25.9187 477.539 26.2039 478.352 26.2039ZM489.168 28.7H485.77V16.0203H489.168V28.7ZM485.57 12.739C485.57 12.2312 485.738 11.8132 486.074 11.4851C486.418 11.157 486.883 10.9929 487.469 10.9929C488.047 10.9929 488.508 11.157 488.852 11.4851C489.195 11.8132 489.367 12.2312 489.367 12.739C489.367 13.2546 489.191 13.6765 488.84 14.0046C488.496 14.3328 488.039 14.4968 487.469 14.4968C486.898 14.4968 486.438 14.3328 486.086 14.0046C485.742 13.6765 485.57 13.2546 485.57 12.739ZM497.805 28.9343C495.945 28.9343 494.43 28.364 493.258 27.2234C492.094 26.0828 491.512 24.5632 491.512 22.6648V22.3367C491.512 21.0632 491.758 19.9265 492.25 18.9265C492.742 17.9187 493.438 17.1453 494.336 16.6062C495.242 16.0593 496.273 15.7859 497.43 15.7859C499.164 15.7859 500.527 16.3328 501.52 17.4265C502.52 18.5203 503.02 20.071 503.02 22.0789V23.4617H494.945C495.055 24.2898 495.383 24.9539 495.93 25.4539C496.484 25.9539 497.184 26.2039 498.027 26.2039C499.332 26.2039 500.352 25.7312 501.086 24.7859L502.75 26.6492C502.242 27.3679 501.555 27.9304 500.688 28.3367C499.82 28.7351 498.859 28.9343 497.805 28.9343ZM497.418 18.5281C496.746 18.5281 496.199 18.7546 495.777 19.2078C495.363 19.6609 495.098 20.3093 494.98 21.1531H499.691V20.8835C499.676 20.1335 499.473 19.5554 499.082 19.1492C498.691 18.7351 498.137 18.5281 497.418 18.5281ZM509.008 12.9031V16.0203H511.176V18.5046H509.008V24.8328C509.008 25.3015 509.098 25.6375 509.277 25.8406C509.457 26.0437 509.801 26.1453 510.309 26.1453C510.684 26.1453 511.016 26.1179 511.305 26.0632V28.6296C510.641 28.8328 509.957 28.9343 509.254 28.9343C506.879 28.9343 505.668 27.7351 505.621 25.3367V18.5046H503.77V16.0203H505.621V12.9031H509.008ZM517.797 23.907L520.141 16.0203H523.773L518.676 30.6687L518.395 31.3367C517.637 32.9929 516.387 33.821 514.645 33.821C514.152 33.821 513.652 33.7468 513.145 33.5984V31.032L513.66 31.0437C514.301 31.0437 514.777 30.946 515.09 30.7507C515.41 30.5554 515.66 30.2312 515.84 29.7781L516.238 28.7351L511.797 16.0203H515.441L517.797 23.907Z" fill="#21205C"/>
</svg>
